<?xml version="1.0" standalone="no"?><!-- Generator: Adobe Fireworks CS6, Export SVG Extension by Aaron Beall (http://fireworks.abeall.com) . Version: 0.6.1  --><!DOCTYPE svg PUBLIC "-//W3C//DTD SVG 1.1//EN" "http://www.w3.org/Graphics/SVG/1.1/DTD/svg11.dtd"><svg id="leaf-vector-Page%201" viewBox="0 0 200 450" style="background-color:#ffffff00" version="1.1"	xmlns="http://www.w3.org/2000/svg" xmlns:xlink="http://www.w3.org/1999/xlink" xml:space="preserve"	x="0px" y="0px" width="200px" height="450px">	<defs>		<!-- Library -->		<symbol id="stem" overflow="visible">			<g id="Layer%2012">				<path d="M -14 72 L -3.375 76.125 C -3.375 76.125 -9.5 28 14.75 4.5 C 24.5 -10.25 27.5 -6.5 13 -26.75 C -4.75 -43.5 -0.3109 -59.4404 -4 -71.5 C -7.0585 -81.4982 -9.3333 -73 -9.3333 -73 C -9.3333 -73 -7.25 -55.25 -19.75 -18.75 C -22.3438 -11.1762 -27.208 3.5091 -20 22.25 C -14.25 43.75 -15.125 48.375 -15.125 48.375 L -14 72 Z" fill="#ada882"/>			</g>		</symbol>		<symbol id="leafright" overflow="visible">			<g id="Layer%2013">				<path d="M -23 171 C -23 171 -61.2014 199.6667 -42.6667 -167.3333 C -41.9533 -181.4575 -43.8095 -159.5483 -11.3333 -128 C 0.6504 -116.3587 22 -88.6667 37 -43.3333 C 51.72 1.1537 50.057 37.27 40 74 C 24.6667 130 -2 146.6667 -23 171 Z" fill="#448337"/>			</g>		</symbol>		<symbol id="leafleft" overflow="visible">			<g id="Layer%2014">				<path d="M 36 175 C 36 175 44 126 46 61 C 48.4117 22.2913 47.4001 -2.6496 47 -44 C 46.657 -79.4504 46.2758 -125.0828 42.2278 -156.0307 C 41.3407 -162.813 40.7775 -168.89 39.5 -174 C 39.0607 -175.757 37.7819 -163.7904 34 -159 C 26.5 -149.5 19.6667 -146 0 -122 C -35 -82 -39.5 -51 -46 5 C -51.5 58 -21 133 36 175 Z" fill="#4ea33c"/>			</g>		</symbol>		<!-- End Library -->	</defs>	<g id="Layer%201">		<use id="stem2" xlink:href="#stem" transform="matrix(1, 0, 0, 1, 114, 349)"/>		<use id="leaf-right" xlink:href="#leafright" transform="matrix(1, 0, 0, 1, 141, 197)"/>		<use id="leaf-left" xlink:href="#leafleft" transform="matrix(1, 0, 0, 1, 59, 200)"/>	</g></svg>