<svg width="400" height="400" viewBox="0 0 800 1280" xmlns="http://www.w3.org/2000/svg">
<g transform="translate(200 -200)">
<g transform="scale(1 -1) translate(0 -1280)">
<path d="M611 19Q603 -16 608 -36T623 -63T642 -83T655 -121Q655 -131 644 -131L30 -130Q19 -130 19 -118L20 -51Q-86 -51 -108 -50Q-118 -50 -118 -41V47Q-118 59 -108 59H489Q491 65 495 75T509 115T529 173T547
236T561 299T565 349T555 380Q515 421 374 421Q297 231 265 165Q209 153 138 169T38 221Q46 247 72 311T122 426L145 478L239 678Q245 679 260 677T289 670L302 667Q321 705 345 759Q347 767 357 764Q387 758 416 748Q427 744 421 735Q418 727 406 694T385 645Q449
629 454 625L421 535Q591 535 667 438Q684 415 687 375T681 286T659 192T632 95T611 19Z" fill="black" />
</g></g>
</svg>

